<?xml version="1.0" standalone="no"?>
<!DOCTYPE svg PUBLIC "-//W3C//DTD SVG 20010904//EN"
 "http://www.w3.org/TR/2001/REC-SVG-20010904/DTD/svg10.dtd">
<svg version="1.0" xmlns="http://www.w3.org/2000/svg"
 width="260.000000pt" height="260.000000pt" viewBox="0 0 260.000000 260.000000"
 preserveAspectRatio="xMidYMid meet">
<metadata>
Created by potrace 1.11, written by Peter Selinger 2001-2013
</metadata>
<g transform="translate(0.000000,260.000000) scale(0.100000,-0.100000)"
fill="#000000" stroke="none">
<path d="M0 1300 l0 -1300 1300 0 1300 0 0 1300 0 1300 -1300 0 -1300 0 0
-1300z m2110 900 c51 -29 97 -90 110 -146 5 -22 10 -403 10 -861 l0 -823 -832
0 -833 0 -51 24 c-59 27 -116 90 -132 145 -9 27 -12 244 -12 772 0 694 1 736
19 774 26 56 81 104 143 126 50 18 96 18 793 16 l740 -2 45 -25z"/>
<path d="M565 2085 c-70 -36 -65 21 -65 -777 0 -623 2 -723 15 -748 32 -62 0
-60 830 -60 l755 0 -2 770 -3 770 -28 27 -27 28 -723 3 c-633 2 -726 0 -752
-13z m705 -720 l0 -485 100 0 100 0 0 -65 0 -65 -175 0 -175 0 0 550 0 550 75
0 75 0 0 -485z"/>
</g>
</svg>
